<svg width="45" height="45" xmlns="http://www.w3.org/2000/svg" xmlns:xlink="http://www.w3.org/1999/xlink" overflow="hidden"><defs><clipPath id="clip0"><rect x="733" y="83" width="45" height="45"/></clipPath></defs><g clip-path="url(#clip0)" transform="translate(-733 -83)"><path d="M745 96.5C745 90.701 749.701 86 755.5 86 761.299 86 766 90.701 766 96.5 766 102.299 761.299 107 755.5 107 749.701 107 745 102.299 745 96.5Z" stroke="#7F7F7F" stroke-width="2.33333" stroke-miterlimit="8" fill="none" fill-rule="evenodd"/><path d="M738.002 125.262C738.15 116.703 746.105 109.871 755.768 110.002 756.412 110.011 757.054 110.051 757.693 110.122" stroke="#7F7F7F" stroke-width="2.33333" stroke-miterlimit="8" fill="none" fill-rule="evenodd"/><path d="M15.7377 0.00206693C24.2971 0.150297 31.1294 8.10456 30.9982 17.7684 30.9894 18.4118 30.9492 19.0541 30.8778 19.6925" stroke="#7F7F7F" stroke-width="2.33333" stroke-miterlimit="8" fill="none" fill-rule="evenodd" transform="matrix(-4.37114e-08 -1 -1 4.37114e-08 773 141)"/></g></svg>